<svg xmlns="http://www.w3.org/2000/svg" aria-hidden="true" style="position:absolute;width:0;height:0;overflow:hidden">
  <defs>
    <symbol id="icon-Arr_left" viewBox="0 0 17 32">
      <path stroke-linecap="round" stroke-linejoin="round" stroke-width="1.846" d="M16 1.231 1.231 16 16 30.769"/>
    </symbol>
    <symbol id="icon-arr_m_left" viewBox="0 0 15 32">
      <path d="M1.117 14.644a2.132 2.132 0 0 0 0 2.712l10.036 12.187c1.272 1.545 3.78.645 3.78-1.356V3.813c0-2.002-2.508-2.901-3.78-1.356L1.117 14.644z"/>
    </symbol>
    <symbol id="icon-arr_m_rigth" viewBox="0 0 15 32">
      <path d="M13.816 14.644a2.132 2.132 0 0 1 0 2.712L3.78 29.543C2.508 31.088 0 30.188 0 28.187V3.813C0 1.812 2.508.912 3.78 2.457l10.036 12.187z"/>
    </symbol>
    <symbol id="icon-arr_right" viewBox="0 0 17 32">
      <path stroke-linecap="round" stroke-linejoin="round" stroke-width="1.846" d="M1.231 1.231 16 16 1.231 30.769"/>
    </symbol>
    <symbol id="icon-base_discord" viewBox="0 0 30 32">
      <path d="M24.47 7.53a21.581 21.581 0 0 0-5.422-1.689.127.127 0 0 0-.089.038 17.22 17.22 0 0 0-.673 1.384 20.414 20.414 0 0 0-6.095 0 12.612 12.612 0 0 0-.686-1.384c-.013-.025-.051-.038-.089-.038-1.905.33-3.721.902-5.422 1.689-.013 0-.025.013-.038.025C2.502 12.723 1.55 17.752 2.019 22.73c0 .025.013.051.038.064 2.286 1.676 4.483 2.692 6.654 3.365.038.013.076 0 .089-.025a16.35 16.35 0 0 0 1.359-2.21c.025-.051 0-.102-.051-.114-.724-.279-1.41-.61-2.083-.99-.051-.025-.051-.102-.013-.14.14-.102.279-.216.419-.318.025-.025.063-.025.089-.013 4.368 1.994 9.079 1.994 13.397 0a.077.077 0 0 1 .089.013c.14.114.279.216.419.33.051.038.051.114-.013.14-.66.394-1.359.711-2.083.99-.051.013-.064.076-.051.114.406.775.863 1.511 1.359 2.21.038.013.076.025.114.013 2.184-.673 4.381-1.689 6.667-3.365a.07.07 0 0 0 .038-.064c.559-5.752-.927-10.743-3.936-15.175-.013-.013-.025-.025-.051-.025zM10.819 19.695c-1.308 0-2.4-1.206-2.4-2.692s1.067-2.692 2.4-2.692c1.346 0 2.413 1.219 2.4 2.692 0 1.486-1.067 2.692-2.4 2.692zm8.851 0c-1.308 0-2.4-1.206-2.4-2.692s1.067-2.692 2.4-2.692c1.346 0 2.413 1.219 2.4 2.692 0 1.486-1.054 2.692-2.4 2.692z"/>
    </symbol>
    <symbol id="icon-base_facebook" viewBox="0 0 30 32">
      <path d="M30.476 16.038c0-8.433-6.827-15.276-15.238-15.276S0 7.606 0 16.038c0 7.394 5.242 13.55 12.19 14.971V20.621H9.142v-4.583h3.048v-3.819c0-2.948 2.392-5.347 5.333-5.347h3.81v4.583h-3.048a1.53 1.53 0 0 0-1.524 1.528v3.055h4.571v4.583h-4.571v10.617c7.695-.764 13.714-7.271 13.714-15.2z"/>
    </symbol>
    <symbol id="icon-base_inst" viewBox="0 0 30 32">
      <path d="m15.991 30.317-.014.003-.09.044-.025.005-.018-.005-.09-.044c-.014-.004-.024-.002-.03.006l-.005.013-.021.543.006.025.013.016.132.094.019.005.015-.005.132-.094.015-.02.005-.022-.021-.542c-.003-.014-.011-.021-.022-.023zm.337-.144-.016.003-.235.118-.013.013-.004.014.023.546.006.015.01.009.255.118c.016.004.029.001.037-.01l.005-.018-.043-.78c-.004-.015-.013-.025-.025-.028zm-.908.003c-.006-.003-.012-.004-.019-.003s-.012.005-.016.011l-.008.018-.043.78c.001.015.008.025.021.03l.019-.002.255-.118.013-.01.005-.014.022-.546-.004-.015-.013-.013-.234-.117zM20.317 4.571a6.35 6.35 0 0 1 6.35 6.35V21.08a6.35 6.35 0 0 1-6.35 6.35H10.158a6.35 6.35 0 0 1-6.35-6.35V10.921a6.35 6.35 0 0 1 6.35-6.35h10.159zm-5.079 6.35a5.08 5.08 0 1 0 0 10.16 5.08 5.08 0 0 0 0-10.16zm0 2.539a2.54 2.54 0 1 1 0 5.08 2.54 2.54 0 0 1 0-5.08zm5.714-4.444a1.27 1.27 0 1 0 0 2.54 1.27 1.27 0 0 0 0-2.54z"/>
    </symbol>
    <symbol id="icon-base_tiktok" viewBox="0 0 32 32">
      <path d="M32 4.518A4.518 4.518 0 0 0 27.481 0H4.518A4.518 4.518 0 0 0 0 4.518v22.963A4.518 4.518 0 0 0 4.518 32h22.963A4.52 4.52 0 0 0 32 27.481V4.518zm-5.49 9.439c-2.065.023-3.988-.601-5.677-1.757v8.115a7.692 7.692 0 0 1-5.96 7.514c-4.763 1.087-8.795-2.358-9.303-6.473-.532-4.115 2.093-7.722 6.116-8.531.786-.162 1.968-.162 2.578-.023v4.346c-.188-.046-.364-.092-.548-.115-1.572-.277-3.095.509-3.719 1.942s-.206 3.098 1.065 4.069c1.063.832 2.243.948 3.446.393 1.202-.532 1.848-1.503 1.987-2.82.023-.185.022-.393.022-.601V4.41c0-.439.003-.42.443-.42h3.445c.254 0 .347.037.37.337.185 2.682 2.221 4.966 4.834 5.313.277.046.575.065.903.088v4.231z"/>
    </symbol>
    <symbol id="icon-base_youtube" viewBox="0 0 30 32">
      <path d="M12.698 19.81 19.289 16l-6.591-3.81v7.619zm14.68-9.943c.165.597.279 1.397.355 2.413a30.51 30.51 0 0 1 .127 2.654l.076 1.067c0 2.781-.203 4.825-.559 6.133-.317 1.143-1.054 1.879-2.197 2.197-.597.165-1.689.279-3.365.356a84.531 84.531 0 0 1-4.559.127l-2.019.076c-5.321 0-8.635-.203-9.943-.559-1.143-.317-1.879-1.054-2.197-2.197-.165-.597-.279-1.397-.356-2.413a30.51 30.51 0 0 1-.127-2.654L2.538 16c0-2.781.203-4.825.559-6.133.317-1.143 1.054-1.879 2.197-2.197.597-.165 1.689-.279 3.365-.356a84.531 84.531 0 0 1 4.559-.127l2.019-.076c5.321 0 8.635.203 9.943.559 1.143.317 1.879 1.054 2.197 2.197z"/>
    </symbol>
    <symbol id="icon-burger" viewBox="0 0 112 32">
      <path d="M4.8 0h102.4a4.8 4.8 0 1 1 0 9.6H4.8a4.8 4.8 0 1 1 0-9.6zM4.8 22.4h102.4a4.8 4.8 0 1 1 0 9.6H4.8a4.8 4.8 0 1 1 0-9.6z"/>
    </symbol>
    <symbol id="icon-close" viewBox="0 0 32 32">
      <path stroke-linecap="round" stroke-linejoin="round" stroke-width="4.571" d="m2.286 2.286 27.429 27.429m-.001-27.429L2.285 29.715"/>
    </symbol>
    <symbol id="icon-discord" viewBox="0 0 32 32">
      <path d="M16 31.999a16.12 16.12 0 0 1-2.563-.204A16.006 16.006 0 0 1 .001 15.999c0-8.823 7.178-16 16-16s16 7.178 16 16c0 3.885-1.409 7.63-3.968 10.547A15.989 15.989 0 0 1 16.001 32l.001-.001zm0-30.931c-8.233 0-14.931 6.698-14.931 14.931 0 7.371 5.273 13.571 12.538 14.74 1.466.236 2.999.253 4.472.047 7.327-1.021 12.852-7.378 12.852-14.788 0-8.233-6.698-14.931-14.931-14.931z"/>
      <path d="M23.216 9.38a17.123 17.123 0 0 0-4.238-1.314.064.064 0 0 0-.068.032c-.183.326-.386.75-.528 1.084-1.6-.24-3.193-.24-4.76 0a10.903 10.903 0 0 0-.536-1.084.066.066 0 0 0-.069-.032c-1.487.256-2.91.704-4.238 1.314a.06.06 0 0 0-.028.024c-2.699 4.033-3.439 7.967-3.076 11.851a.073.073 0 0 0 .027.049 17.257 17.257 0 0 0 5.199 2.628.068.068 0 0 0 .073-.024c.401-.547.758-1.124 1.063-1.73.018-.036 0-.077-.037-.092a11.356 11.356 0 0 1-1.624-.774c-.041-.024-.045-.083-.006-.11.11-.082.218-.167.322-.253a.065.065 0 0 1 .068-.009c3.408 1.556 7.097 1.556 10.465 0a.065.065 0 0 1 .068.008c.104.085.214.172.323.254.037.028.036.086-.005.11-.518.303-1.058.559-1.625.773a.069.069 0 0 0-.036.093c.312.606.67 1.183 1.062 1.729a.067.067 0 0 0 .073.025 17.229 17.229 0 0 0 5.208-2.628.063.063 0 0 0 .027-.048c.435-4.492-.728-8.393-3.079-11.851a.047.047 0 0 0-.027-.025h.001zm-10.669 9.51c-1.026 0-1.871-.942-1.871-2.099s.829-2.099 1.871-2.099 1.888.95 1.871 2.099c0 1.157-.829 2.099-1.871 2.099zm6.919 0c-1.026 0-1.871-.942-1.871-2.099s.829-2.099 1.871-2.099 1.888.95 1.871 2.099c0 1.157-.821 2.099-1.871 2.099z"/>
    </symbol>
    <symbol id="icon-facebook" viewBox="0 0 32 32">
      <path d="M16 32A16.006 16.006 0 0 1 .001 15.999c0-8.823 7.178-16 16-16s16 7.178 16 16c0 3.885-1.409 7.63-3.968 10.547A15.984 15.984 0 0 1 16.001 32zm0-30.931C7.767 1.069 1.069 7.767 1.069 16c0 7.371 5.273 13.571 12.538 14.74 1.465.236 2.998.253 4.472.047C25.405 29.767 30.93 23.409 30.93 16c0-8.233-6.698-14.931-14.932-14.931h.001z"/>
      <path d="M18.153 12.951v3.369h4.168l-.66 4.539h-3.508v10.457a15.612 15.612 0 0 1-4.631-.049V20.859H9.678V16.32h3.844v-4.121a4.632 4.632 0 0 1 4.632-4.632v.003l.021-.003h4.146v3.925h-2.709c-.806 0-1.459.653-1.459 1.459l-.001.001z"/>
    </symbol>
    <symbol id="icon-inst" viewBox="0 0 32 32">
      <path d="M16 32A16.006 16.006 0 0 1 .001 15.999c0-8.823 7.178-16 16-16s16 7.178 16 16c0 3.885-1.409 7.63-3.968 10.547A15.984 15.984 0 0 1 16.001 32zm0-30.931C7.767 1.069 1.069 7.767 1.069 16c0 7.371 5.273 13.571 12.538 14.74 1.465.236 2.998.253 4.472.047C25.405 29.767 30.93 23.409 30.93 16c0-8.233-6.698-14.931-14.932-14.931h.001z"/>
      <path d="M20.843 6.717h-9.686a4.858 4.858 0 0 0-4.853 4.853v8.862a4.857 4.857 0 0 0 4.853 4.852h9.686a4.858 4.858 0 0 0 4.853-4.852V11.57a4.858 4.858 0 0 0-4.853-4.853zM8.016 11.57a3.144 3.144 0 0 1 3.141-3.141h9.686a3.144 3.144 0 0 1 3.141 3.141v8.862a3.144 3.144 0 0 1-3.141 3.141h-9.686a3.144 3.144 0 0 1-3.141-3.141V11.57z"/>
      <path d="M16 20.514c2.489 0 4.514-2.025 4.514-4.514S18.489 11.486 16 11.486 11.486 13.511 11.486 16A4.52 4.52 0 0 0 16 20.514zm0-7.316c1.545 0 2.802 1.257 2.802 2.802S17.545 18.802 16 18.802c-1.545 0-2.802-1.256-2.802-2.802s1.257-2.802 2.802-2.802zM20.932 12.215c.671 0 1.216-.546 1.216-1.216s-.546-1.216-1.216-1.216c-.671 0-1.216.546-1.216 1.216s.546 1.216 1.216 1.216z"/>
    </symbol>
    <symbol id="icon-tiktok" viewBox="0 0 32 32">
      <path d="M16 32A16.006 16.006 0 0 1 0 15.999c0-8.823 7.178-16 16-16s16 7.178 16 16c0 3.885-1.409 7.63-3.968 10.547A15.989 15.989 0 0 1 16 32h.001zm0-30.931C7.767 1.069 1.069 7.767 1.069 16c0 7.371 5.273 13.571 12.538 14.74 1.465.236 2.999.253 4.472.047 7.327-1.02 12.852-7.378 12.852-14.787 0-8.233-6.698-14.931-14.931-14.931z"/>
      <path d="M23.568 11.672v2.955a7.779 7.779 0 0 1-4.095-1.658v5.974l-.012-.019a5.388 5.388 0 0 1-5.37 5.743c-2.969 0-5.382-2.415-5.382-5.382a5.388 5.388 0 0 1 6.236-5.315v2.913a2.553 2.553 0 0 0-3.404 2.402c0 1.407 1.144 2.55 2.55 2.55a2.553 2.553 0 0 0 2.546-2.708V7.518h2.954l.031.752c.02.492.195.965.5 1.353.359.455.888.984 1.632 1.406a5.59 5.59 0 0 0 1.813.644v-.001z"/>
    </symbol>
    <symbol id="icon-youtube" viewBox="0 0 32 32">
      <path d="M16 32A16.006 16.006 0 0 1 .001 15.999c0-8.823 7.178-16 16-16s16 7.178 16 16c0 3.885-1.409 7.63-3.968 10.547A15.984 15.984 0 0 1 16.001 32zm0-30.931C7.767 1.069 1.069 7.767 1.069 16c0 7.372 5.273 13.571 12.538 14.74 1.464.236 2.998.253 4.472.047C25.405 29.767 30.93 23.409 30.93 16c0-8.233-6.698-14.931-14.932-14.931h.001z"/>
      <path d="M25.828 12.767c-.122-1.186-.387-2.496-1.359-3.186-.754-.534-1.744-.554-2.669-.553l-5.864.005-5.64.005c-.785 0-1.549-.061-2.278.279-.627.292-1.117.847-1.411 1.464-.41.859-.496 1.832-.545 2.782a44.743 44.743 0 0 0 .029 5.192c.079 1.262.281 2.656 1.257 3.46.865.712 2.085.747 3.205.748l10.676.009c.456 0 .932-.008 1.397-.059.915-.099 1.787-.361 2.375-1.038.593-.683.745-1.635.836-2.535.219-2.184.216-4.39-.009-6.573zm-11.951 6.297v-6.125l5.305 3.063-5.305 3.063z"/>
    </symbol>
    <symbol id="icon-arrow-up" viewBox="0 0 32 32">
      <path d="m27.414 12.586-10-10a2 2 0 0 0-2.828 0l-10 10a2 2 0 1 0 2.828 2.828L14 8.828V28a2 2 0 1 0 4 0V8.828l6.586 6.586c.39.39.902.586 1.414.586s1.024-.195 1.414-.586a2 2 0 0 0 0-2.828z"/>
    </symbol>
  </defs>
</svg>
